<svg xmlns="http://www.w3.org/2000/svg" viewBox="0 0 119.5 61.89"><defs><style>.cls-1{fill:#231815;}</style></defs><g id="圖層_1" data-name="圖層 1"><path class="cls-1" d="M9.45,24.9c-1.81,1.91,1.51,1.91,2.61,0C11,26.81,11,9.06,12.06,11c-1.1-1.9-4.42-1.9-2.61,0-1.81-1.9-1.81-2.26,0-.29-1.81-2,3.82-2,4.42,0-.32-2,0-2,.66,0-.14-2,.14-2,.66,0,0-2,.31-2,.65,0,.2-2,.47-2,.64,0,1.25-2,2.3-1.87,2.49.28,1.75-1.68,2.59-1.35,2,.78,2-1.26,2.59-.75,1.31,1.23,2.08-.76,2.28-.09.47,1.59,1.81-.16,1.58.53-.54,1.63,1.2.12.59.63-1.44,1.2.52.26-.37.58-2.08.75a4.14,4.14,0,0,1-2.48.27.94.94,0,0,1-.85-.05c-.64.06-1,0-.92-.11-.45.07-.45,8.63,0,6.72-.45,1.91,2.87,1.91,2.62,0,.25,1.91.25,2.28,0,.29.25,2-9.39,2-7.58,0C7.64,27.18,7.64,26.81,9.45,24.9Zm5.12-7.48c-.37,1,0,1.06,1,.13-.06,1,.33,1,.91,0,1.24,1,2.39.6,2.72-.89,1.33,0,1.74-1.16,1-2.68.76-.88.66-1.62-.24-1.73.5-1.06.19-1.53-.74-1.12.07-1.12-.49-1.37-1.32-.58-.55-1.07-1.37-1.14-1.94-.16-.77-1-1.11-1-.81,0-.92-.95-1.16-.93-.55,0C13.8,9.53,13.8,18.36,14.57,17.42Z"/><path class="cls-1" d="M49.24,24.91c-2.22,1.89,1.1,1.89,2.61,0-1.51,1.89-1.51-15.85,0-13.94C50.34,9.06,47,9.06,49.24,11c-2.22-1.91-2.22-2.28,0-.29-2.22-2,3.47-2,4.47,0-.76-2-.52-2,.56,0-.6-2-.36-2,.57,0-.45-2-.21-2,.56,0-.29-2,0-2,.57,0,.8-2,1.83-1.95,2.45.13,1.18-1.85,2-1.53,2,.77,1.53-1.3,2-.77,1.17,1.24,1.43-.83,1.58-.28.34,1.31,1.24-.81,1.18-.48-.13.78,1.09-.44.85,0-.56,1,.67-.16.14.23-1.26.92,0,0-.93.25-2.19.56.1-.18.1-.13,0,0a1,1,0,0,1,1,.15c.94,0,1.5.13,1.32.38,1.31.2,1.84.5,1.24.7,1.56.54,1.9,1,.8,1.14,1.42.81,1.5,1.21.2.92,1.4,1.17,1.44,1.62.09,1.07,1.41,1.49,1.44,1.94.07,1.06,1.43,1.74,1.49,2.11.13.86,1.56,2,1.74,2.4.45,1,1.81,2.16,2.23,2.34,1,.43,2.08,1.91,2.35,1.87.63-.11,2.28,1.81,2.53,1.67.59-.32,2.16,1.8,2.43,2.09.21.22,2.12,1.93,2,2-.27.18,2,2,1.85,2.06-.39.17,1.84,2,1.6,2.08-.57.13,1.59,2,1.23,2.06-.84.05.85,2,.19,1.92-1.56-.2.69,1.78.27,1.52-1-.6.63,1.45.39,1-.56-1,.65,1,.55.45-.25-1.36.74,1.15.53-1.21-.16-1.85.61-.22.41-.9-.47-1.59.24-.28-.13-.63-.88-.84-.11-.24-.56-.37-1-.32a1.23,1.23,0,0,0-.94-.05c-.22-.11-3.22-.11-2.36,0-.86-.11-.86,9.25,0,7.36-.86,1.89,2.47,1.89,2.62,0-.15,1.89-.15,2.26,0,.29-.15,2-9.8,2-7.58,0C47,27.17,47,26.8,49.24,24.91Zm4.88-8.17c-.7.86,2.06.86,2.17,0,.45.86,1,.8,1.2-.15.68.71,1.07.5.93-.49.8.38,1.06,0,.6-1,.81-.09.9-.75.21-1.55.69-.9.56-1.62-.32-1.71.34-1,0-1.41-.82-1-.05-1-.53-1.19-1.13-.43-.46-.93-1-1-1.24-.1-.62-.87-1-.87-.86,0-.86-.86-1.18-.84-.74,0C53.42,9.59,53.42,17.6,54.12,16.74Z"/><path class="cls-1" d="M71.19,24.91c-1,1.9,2.3,1.9,2.62,0-.32,1.9-.32-15.85,0-13.95-.32-1.9-2.06-1.9-1.37,0-1.09-1.9-1.54-1.87-1.06.07-1.48-1.82-2-1.65-1.19.4-1.81-1.5-2.3-1.06-1.15,1-2.09-.9-2.49-.07-1,1.95-1.88-1-2.21-1-.26,0-2-1-2-5.71,0-3.73-2-2,16.26-2,14.31,0,2-2,2,2.77,0,3.73,2-1,1.62-1-.26,0,1.54-2,1.14-2.85-.95-1.95,1.15-2.09.66-2.53-1.16-1,.8-2,.3-2.22-1.19-.4.49-1.94,0-2-1-.07.69-1.9-1-1.9-1.37,0,.32-1.9.32,15.85,0,14,.32,1.9,3.65,1.9,2.61,0,1,1.9,1,2.26,0,.28,1,2-8.61,2-7.58,0C70.16,27.17,70.16,26.81,71.19,24.91Z"/><path class="cls-1" d="M9.25,50.3c-1.83,1.91,1.49,1.91,2.62,0-1.13,1.91-1.13-15.84,0-13.94-1.13-1.9-4.45-1.9-2.62,0-1.83-1.9-1.83-2.27,0-.29-1.83-2,15.3-2,13.47,0,1.83-2,1.83,2.51,0,3.53,1.83-1,1.51-1-.26,0,1.51-1.69,1.23-2.29-.66-1.4,1.29-1.91.93-2.34-.85-1,.94-2,.44-2.29-1.17-.62.45-2-.25-2.1-1.65-.2.58-1.9-4.39-1.9-3.91,0-.48-1.9-.48,6.5,0,6.6-.48-.1,1.47-.1,1.53,0a6.09,6.09,0,0,1,1.32-.12c.75-.24,1.15-.43.93-.46.88-.54,1.16-.93.66-.92,1-1,1.18-1.63.53-1.49.87-.92,1.2-.92.26,0,.94-.92.94,7.15,0,6.34.94.81.61.81-.26,0,.73.31.59-.18-.34-1.14.63,0,.42-.39-.5-1,.38-.13,0-.42-.85-.69,0-.17-.61-.27-1.37-.25,0,0-2.39,0-1.91,0-.48,0-.48,9,0,7-.48,1.91,2.85,1.91,2.61,0,.24,1.91.24,2.27,0,.29.24,2-9.41,2-7.58,0C7.42,52.57,7.42,52.21,9.25,50.3Z"/><path class="cls-1" d="M49.41,50.3c-2,1.91,1.37,1.91,2.62,0-1.25,1.91-1.25-15.84,0-13.94-1.25-1.9-4.58-1.9-2.62,0-2-1.9-2-2.27,0-.29-2-2,7.69-2,7.58,0,.11-2,.11-1.61,0,.29.11-1.9-3.22-1.9-2.61,0-.61-1.9-.61,15.85,0,13.94-.61,1.91,4.73,1.91,4.19,0,2.29,1.91,3.67,1.43,3.25-1.12,2.42.65,3.15-.65,1.72-3.06,1.89.77,2.22.77.26,0,2,.77,2,6.45,0,4.47,2,2-16.35,2-14.39,0C47.45,52.57,47.45,52.21,49.41,50.3Z"/><path class="cls-1" d="M67.35,50.3c-1,1.91,2.29,1.91,2.61,0-.32,1.91-.32-15.84,0-13.94-.32-1.9-3.64-1.9-2.61,0-1-1.9-1-2.27,0-.29-1-2,8.62-2,7.58,0,1-2,1-1.61,0,.29,1-1.9-2.29-1.9-2.61,0,.32-1.9.32,15.85,0,13.94.32,1.91,3.65,1.91,2.61,0,1,1.91,1,2.27,0,.29,1,2-8.61,2-7.58,0C66.32,52.57,66.32,52.21,67.35,50.3Z"/><path class="cls-1" d="M30.86,11.72c-.42-2.6.76-3.2,2.76-1.42.6-2.37,1.9-2.43,3.07-.13,1.43-1.93,2.68-1.54,2.93.94,2.11-1.25,3.11-.48,2.35,1.82,2.43-.36,3.09.77,1.54,2.67,2.44.63,2.65,1.92.51,3,2.12,1.5,1.86,2.76-.61,3,1.46,2.22.69,3.28-1.83,2.5.56,2.48-.52,3-2.53,1.35-.45,2.4-1.71,2.52-3,.27-1.33,2-2.6,1.65-3-.84-2.1,1.3-3.2.45-2.59-2-2.54.22-3.25-1-1.67-2.89-2.44-.75-2.63-2.06-.43-3.07-2.06-1.56-1.76-2.78.72-2.88C27.71,11.83,28.46,10.84,30.86,11.72Zm1.77,2c-2.15-.12-3.1.86-2.24,2.31-2.3.43-2.77,1.36-1.11,2.2-2.1,1-2.07,1.95.08,2.18-1.57,1.6-1,2.55,1.34,2.23-.66,2.26.19,3,2,1.64-.08,2.16.84,2.33,2.15.39.59,1.77,1.59,1.43,2.34-.78,1.31,1.06,2.42.26,2.61-1.88,1.89.34,2.7-.49,1.92-1.94C44,19.84,44.49,18.93,43,18c2.17-.95,2.24-1.95.14-2.34,1.69-1.66,1.11-2.72-1.36-2.51.56-2.42-.41-3.14-2.29-1.71-.09-2.13-1.08-2.21-2.33-.19-.74-1.64-1.72-1.25-2.31.93C33.49,11.16,32.56,11.85,32.63,13.77Z"/><path class="cls-1" d="M30.15,37.11c-.41-2.59.76-3.2,2.76-1.41.6-2.37,1.9-2.43,3.07-.14,1.44-1.93,2.68-1.53,2.93.94C41,35.25,42,36,41.26,38.33c2.44-.37,3.09.76,1.54,2.66,2.44.63,2.66,1.92.51,3,2.12,1.5,1.86,2.76-.61,3,1.46,2.21.69,3.28-1.82,2.5.55,2.47-.52,3-2.53,1.35-.45,2.4-1.71,2.51-3,.27-1.32,2-2.6,1.65-3-.85-2.1,1.3-3.2.45-2.6-2-2.54.22-3.25-1-1.67-2.89-2.44-.75-2.62-2.05-.43-3.06-2.06-1.56-1.76-2.78.72-2.88C27,37.22,27.75,36.24,30.15,37.11Zm1.77,2c-2.15-.12-3.1.86-2.24,2.31-2.29.43-2.77,1.37-1.1,2.21-2.11,1-2.08,2,.07,2.17-1.57,1.6-1,2.55,1.34,2.24-.66,2.26.2,2.95,2,1.63-.07,2.17.84,2.33,2.15.4.6,1.76,1.59,1.43,2.35-.78,1.31,1,2.41.25,2.6-1.89C41,47.79,41.81,47,41,45.51c2.24-.27,2.76-1.19,1.24-2.15,2.18-1,2.24-1.94.15-2.34,1.68-1.65,1.1-2.72-1.37-2.51.57-2.41-.41-3.14-2.29-1.7-.09-2.13-1.08-2.21-2.33-.19-.74-1.65-1.72-1.26-2.3.92C32.78,36.55,31.85,37.24,31.92,39.16Z"/><path class="cls-1" d="M82.08,37.11c-.41-2.59.77-3.2,2.77-1.41.6-2.37,1.9-2.43,3.07-.14,1.43-1.93,2.67-1.53,2.92.94C93,35.25,94,36,93.19,38.33c2.44-.37,3.1.76,1.55,2.66,2.43.63,2.65,1.92.5,3,2.12,1.5,1.87,2.76-.6,3,1.46,2.21.68,3.28-1.83,2.5.55,2.47-.52,3-2.53,1.35-.45,2.4-1.71,2.51-3,.27-1.33,2-2.6,1.65-3-.85-2.1,1.3-3.2.45-2.6-2-2.53.22-3.24-1-1.66-2.89-2.44-.75-2.63-2.05-.43-3.06-2.07-1.56-1.76-2.78.71-2.88C78.94,37.22,79.68,36.24,82.08,37.11Zm1.77,2c-2.14-.12-3.09.86-2.23,2.31-2.3.43-2.77,1.37-1.11,2.21-2.11,1-2.07,2,.08,2.17-1.58,1.6-1,2.55,1.34,2.24-.66,2.26.19,2.95,2,1.63-.08,2.17.83,2.33,2.15.4.59,1.76,1.59,1.43,2.34-.78,1.31,1,2.42.25,2.61-1.89,1.89.34,2.7-.48,1.92-1.94,2.23-.27,2.76-1.19,1.24-2.15,2.17-1,2.23-1.94.14-2.34C96,39.37,95.45,38.3,93,38.51c.56-2.41-.41-3.14-2.29-1.7-.1-2.13-1.09-2.21-2.34-.19-.73-1.65-1.71-1.26-2.3.92C84.72,36.55,83.79,37.24,83.85,39.16Z"/><path class="cls-1" d="M82.08,37.11c-.41-2.59.77-3.2,2.77-1.41.6-2.37,1.9-2.43,3.07-.14,1.43-1.93,2.67-1.53,2.92.94C93,35.25,94,36,93.19,38.33c2.44-.37,3.1.76,1.55,2.66,2.43.63,2.65,1.92.5,3,2.12,1.5,1.87,2.76-.6,3,1.46,2.21.68,3.28-1.83,2.5.55,2.47-.52,3-2.53,1.35-.45,2.4-1.71,2.51-3,.27-1.33,2-2.6,1.65-3-.85-2.1,1.3-3.2.45-2.6-2-2.53.22-3.24-1-1.66-2.89-2.44-.75-2.63-2.05-.43-3.06-2.07-1.56-1.76-2.78.71-2.88C78.94,37.22,79.68,36.24,82.08,37.11Zm1.77,2c-2.14-.12-3.09.86-2.23,2.31-2.3.43-2.77,1.37-1.11,2.21-2.11,1-2.07,2,.08,2.17-1.58,1.6-1,2.55,1.34,2.24-.66,2.26.19,2.95,2,1.63-.08,2.17.83,2.33,2.15.4.59,1.76,1.59,1.43,2.34-.78,1.31,1,2.42.25,2.61-1.89,1.89.34,2.7-.48,1.92-1.94,2.23-.27,2.76-1.19,1.24-2.15,2.17-1,2.23-1.94.14-2.34C96,39.37,95.45,38.3,93,38.51c.56-2.41-.41-3.14-2.29-1.7-.1-2.13-1.09-2.21-2.34-.19-.73-1.65-1.71-1.26-2.3.92C84.72,36.55,83.79,37.24,83.85,39.16Z"/></g></svg>